<svg id="visual" viewBox="0 0 900 600" width="900" height="600" xmlns="http://www.w3.org/2000/svg" xmlns:xlink="http://www.w3.org/1999/xlink" version="1.1"><path d="M0 156L25 151.3C50 146.7 100 137.3 150 134C200 130.7 250 133.3 300 139.8C350 146.3 400 156.7 450 148.8C500 141 550 115 600 119.7C650 124.3 700 159.7 750 168.3C800 177 850 159 875 150L900 141L900 601L875 601C850 601 800 601 750 601C700 601 650 601 600 601C550 601 500 601 450 601C400 601 350 601 300 601C250 601 200 601 150 601C100 601 50 601 25 601L0 601Z" fill="#626285"></path><path d="M0 232L25 222.7C50 213.3 100 194.7 150 188.2C200 181.7 250 187.3 300 188.5C350 189.7 400 186.3 450 198.5C500 210.7 550 238.3 600 245.3C650 252.3 700 238.7 750 229.5C800 220.3 850 215.7 875 213.3L900 211L900 601L875 601C850 601 800 601 750 601C700 601 650 601 600 601C550 601 500 601 450 601C400 601 350 601 300 601C250 601 200 601 150 601C100 601 50 601 25 601L0 601Z" fill="#434265"></path><path d="M0 276L25 281.8C50 287.7 100 299.3 150 301.7C200 304 250 297 300 298C350 299 400 308 450 315.5C500 323 550 329 600 326.8C650 324.7 700 314.3 750 313C800 311.7 850 319.3 875 323.2L900 327L900 601L875 601C850 601 800 601 750 601C700 601 650 601 600 601C550 601 500 601 450 601C400 601 350 601 300 601C250 601 200 601 150 601C100 601 50 601 25 601L0 601Z" fill="#252546"></path><path d="M0 396L25 386.5C50 377 100 358 150 347.5C200 337 250 335 300 334.2C350 333.3 400 333.7 450 346.5C500 359.3 550 384.7 600 394.5C650 404.3 700 398.7 750 387.3C800 376 850 359 875 350.5L900 342L900 601L875 601C850 601 800 601 750 601C700 601 650 601 600 601C550 601 500 601 450 601C400 601 350 601 300 601C250 601 200 601 150 601C100 601 50 601 25 601L0 601Z" fill="#252546"></path><path d="M0 459L25 454.5C50 450 100 441 150 433C200 425 250 418 300 422.3C350 426.7 400 442.3 450 445C500 447.7 550 437.3 600 439.7C650 442 700 457 750 456.8C800 456.7 850 441.3 875 433.7L900 426L900 601L875 601C850 601 800 601 750 601C700 601 650 601 600 601C550 601 500 601 450 601C400 601 350 601 300 601C250 601 200 601 150 601C100 601 50 601 25 601L0 601Z" fill="#434265"></path><path d="M0 543L25 543.2C50 543.3 100 543.7 150 542.3C200 541 250 538 300 528.8C350 519.7 400 504.3 450 499.5C500 494.7 550 500.3 600 499.8C650 499.3 700 492.7 750 491.2C800 489.7 850 493.3 875 495.2L900 497L900 601L875 601C850 601 800 601 750 601C700 601 650 601 600 601C550 601 500 601 450 601C400 601 350 601 300 601C250 601 200 601 150 601C100 601 50 601 25 601L0 601Z" fill="#626285"></path></svg>